<!-- Generated by IcoMoon.io -->
<svg version="1.1" xmlns="http://www.w3.org/2000/svg" width="34" height="32" viewBox="0 0 34 32">
<title>icon-astronaut</title>
<path fill="#2196f3" d="M31.975 4.279c-0.060-0.182-0.217-0.315-0.407-0.343l-1.807-0.263-0.809-1.638c-0.169-0.345-0.735-0.345-0.905 0l-0.809 1.638-1.807 0.263c-0.19 0.028-0.348 0.16-0.408 0.343-0.059 0.183-0.010 0.383 0.128 0.517l1.308 1.275-0.309 1.8c-0.032 0.189 0.045 0.38 0.2 0.493 0.157 0.114 0.362 0.128 0.532 0.038l1.616-0.85 1.616 0.85c0.074 0.039 0.155 0.058 0.235 0.058 0.104 0 0.209-0.032 0.297-0.096 0.155-0.113 0.233-0.304 0.2-0.493l-0.309-1.8 1.308-1.275c0.137-0.134 0.186-0.335 0.127-0.517zM29.646 5.535c-0.119 0.115-0.173 0.283-0.145 0.447l0.181 1.054-0.946-0.497c-0.074-0.039-0.154-0.058-0.235-0.058s-0.161 0.019-0.235 0.058l-0.947 0.497 0.181-1.054c0.028-0.163-0.026-0.33-0.145-0.447l-0.766-0.747 1.058-0.154c0.165-0.024 0.306-0.127 0.38-0.276l0.473-0.959 0.473 0.959c0.074 0.149 0.215 0.252 0.38 0.276l1.058 0.154-0.765 0.747z"></path>
<path fill="#2196f3" d="M26.451 19.413h-1.009v1.009h1.009v-1.009z"></path>
<path fill="#2196f3" d="M26.451 21.431h-1.009v1.009h1.009v-1.009z"></path>
<path fill="#2196f3" d="M27.46 20.422h-1.009v1.009h1.009v-1.009z"></path>
<path fill="#2196f3" d="M25.442 20.422h-1.009v1.009h1.009v-1.009z"></path>
<path fill="#2196f3" d="M22.919 24.963h-1.009v1.009h1.009v-1.009z"></path>
<path fill="#2196f3" d="M22.919 26.981h-1.009v1.009h1.009v-1.009z"></path>
<path fill="#2196f3" d="M23.928 25.972h-1.009v1.009h1.009v-1.009z"></path>
<path fill="#2196f3" d="M21.91 25.972h-1.009v1.009h1.009v-1.009z"></path>
<path fill="#2196f3" d="M16.865 22.945h-1.009v1.009h1.009v-1.009z"></path>
<path fill="#2196f3" d="M16.865 24.963h-1.009v1.009h1.009v-1.009z"></path>
<path fill="#2196f3" d="M17.874 23.953h-1.009v1.009h1.009v-1.009z"></path>
<path fill="#2196f3" d="M15.856 23.953h-1.009v1.009h1.009v-1.009z"></path>
<path fill="#2196f3" d="M7.279 5.791h-1.009v1.009h1.009v-1.009z"></path>
<path fill="#2196f3" d="M7.279 7.809h-1.009v1.009h1.009v-1.009z"></path>
<path fill="#2196f3" d="M8.288 6.8h-1.009v1.009h1.009v-1.009z"></path>
<path fill="#2196f3" d="M6.27 6.8h-1.009v1.009h1.009v-1.009z"></path>
<path fill="#212121" d="M25.109 13.394c-0.272-0.367-0.671-0.603-1.124-0.666-0.455-0.065-0.904 0.055-1.267 0.333l-1.185 0.908-1.795 1.341-1.285-0.512c2.29-1.028 3.891-3.319 3.891-5.978 0-3.616-2.954-6.559-6.585-6.559s-6.585 2.942-6.585 6.559c0 1.311 0.392 2.53 1.059 3.555l-2.614-0.023c-0.002 0-0.003 0-0.005 0-0.008 0-0.015 0.004-0.022 0.005-0.050 0.002-0.099 0.012-0.147 0.029-0.012 0.005-0.025 0.007-0.036 0.013-0.006 0.003-0.012 0.003-0.018 0.006l-3.058 1.51c-0.001 0-0.001 0-0.001 0l-1.791 0.861c-0.020 0.009-0.040 0.020-0.060 0.033-0.714 0.475-0.957 1.409-0.566 2.171 0.208 0.406 0.563 0.704 0.999 0.841 0.168 0.052 0.34 0.078 0.51 0.078 0.274 0 0.545-0.067 0.794-0.2l1.313-0.698 2.142-1.106 1.284-0.008-5.148 5.123c-0 0.001-0.001 0.001-0.002 0.001l-1.266 1.261c-0.299 0.298-0.464 0.693-0.464 1.114s0.164 0.817 0.464 1.115c0.307 0.306 0.711 0.459 1.115 0.459s0.808-0.153 1.116-0.459l1.243-1.238 1.647-1.23 0.852 0.849-1.666 1.659c-0 0.001-0.001 0.001-0.002 0.001l-1.266 1.261c-0.299 0.298-0.464 0.693-0.464 1.114s0.165 0.817 0.464 1.115c0.307 0.306 0.712 0.459 1.116 0.459s0.809-0.153 1.117-0.459l3.293-3.279c0.001-0.001 0.001-0.001 0.001-0.002l0.955-0.946-0.004-0.004c0.006-0.006 0.015-0.008 0.021-0.015l4.887-5.352 3.283 0.467c0.024 0.004 0.047 0.005 0.071 0.005 0.061 0 0.12-0.015 0.177-0.036 0.017-0.006 0.031-0.014 0.047-0.022 0.018-0.009 0.037-0.014 0.055-0.026l3.040-2.018c0.011-0.008 0.017-0.020 0.028-0.028 0.012-0.010 0.027-0.014 0.038-0.024l1.203-1.127c0.626-0.586 0.712-1.547 0.2-2.234zM3.745 16.81c-0.164 0.088-0.35 0.105-0.528 0.049-0.177-0.055-0.32-0.176-0.404-0.339-0.152-0.297-0.064-0.658 0.203-0.853l1.243-0.598 0.425 1.242-0.938 0.499zM7.053 15.081l-1.465 0.757-0.415-1.214 1.917-0.946-0.037 1.404zM21.336 8.818c0 0.869-0.207 1.688-0.567 2.421l-3.955-1.797c-0.041-0.542-0.323-1.017-0.746-1.313l1.385-4.598c2.249 0.715 3.883 2.814 3.883 5.286zM10.185 8.818c0-3.060 2.501-5.55 5.576-5.55 0.239 0 0.473 0.020 0.705 0.049l-1.355 4.497c-0.018-0.001-0.035-0.006-0.054-0.006-0.977 0-1.771 0.792-1.771 1.766s0.795 1.766 1.771 1.766c0.657 0 1.224-0.363 1.531-0.894l3.654 1.66c-1.017 1.368-2.644 2.261-4.481 2.261-3.074 0-5.576-2.49-5.576-5.55zM15.819 9.575c0 0.417-0.342 0.757-0.762 0.757s-0.762-0.339-0.762-0.757c0-0.417 0.342-0.757 0.762-0.757s0.762 0.34 0.762 0.757zM4.061 23.787c-0.223 0.221-0.585 0.221-0.808 0.001-0.107-0.108-0.167-0.249-0.167-0.4s0.059-0.292 0.167-0.399l0.91-0.907 0.805 0.802-0.907 0.903zM7.101 27.319c-0.223 0.221-0.586 0.222-0.809 0.001-0.107-0.107-0.167-0.249-0.167-0.4s0.059-0.292 0.167-0.399l0.911-0.907 0.806 0.802-0.908 0.904zM10.395 24.037c-0.001 0-0.001 0-0.002 0.001l-1.669 1.665-0.806-0.802 1.668-1.66c0 0 0 0 0-0s0.001-0.001 0.002-0.001c0.038-0.038 0.062-0.083 0.085-0.128 0.007-0.013 0.019-0.024 0.025-0.038 0.016-0.039 0.018-0.081 0.024-0.122 0.003-0.023 0.013-0.045 0.013-0.069 0-0.034-0.012-0.067-0.019-0.1-0.006-0.030-0.006-0.061-0.018-0.090-0.019-0.047-0.052-0.089-0.086-0.13-0.010-0.011-0.013-0.025-0.024-0.036 0 0 0 0-0.001 0s-0.001-0.002-0.001-0.002l-1.52-1.514c-0.016-0.016-0.037-0.023-0.055-0.036-0.027-0.021-0.052-0.040-0.082-0.055-0.029-0.014-0.058-0.023-0.088-0.031-0.032-0.009-0.064-0.016-0.097-0.019-0.031-0.002-0.060 0.001-0.090 0.005-0.034 0.004-0.066 0.009-0.098 0.019-0.032 0.010-0.060 0.026-0.089 0.042-0.019 0.011-0.040 0.014-0.058 0.027l-1.677 1.252-0.852-0.849 2.269-2.257 4.125 4.057-0.877 0.869zM16.845 17.4c-0.015-0.002-0.028 0.004-0.043 0.003-0.037-0.002-0.072 0.001-0.109 0.007-0.029 0.005-0.056 0.011-0.083 0.020-0.032 0.011-0.062 0.026-0.091 0.044-0.028 0.017-0.054 0.035-0.079 0.058-0.012 0.011-0.027 0.016-0.038 0.028l-4.444 4.868-4.094-4.027 2.68-2.666c0.197-0.197 0.198-0.516 0.002-0.714-0.099-0.099-0.23-0.148-0.361-0.148v-0l-2.099 0.013 0.026-1.521 2.936 0.025c1.197 1.224 2.866 1.987 4.712 1.987 0.414 0 0.817-0.043 1.21-0.116 0.038 0.030 0.075 0.061 0.123 0.080l2.279 0.908 0.313 1.555-2.84-0.404zM20.668 17.568l-0.296-1.474 1.368-1.022 0.896 1.189-1.968 1.307zM24.219 14.89l-0.793 0.743-0.881-1.169 0.787-0.603c0.147-0.113 0.332-0.159 0.514-0.135 0.183 0.026 0.344 0.121 0.454 0.269 0.205 0.276 0.17 0.661-0.081 0.896z"></path>
<path fill="#212121" d="M14.597 17.542l-2.027-2.018c-0.196-0.196-0.515-0.196-0.712 0l-2.027 2.018c-0.095 0.095-0.148 0.223-0.148 0.358s0.053 0.263 0.148 0.358l2.027 2.018c0.098 0.098 0.228 0.147 0.356 0.147s0.258-0.049 0.356-0.147l2.027-2.018c0.095-0.095 0.149-0.223 0.149-0.358s-0.054-0.263-0.149-0.358zM12.214 19.206l-1.312-1.306 1.312-1.306 1.312 1.306-1.312 1.306z"></path>
<path fill="#212121" d="M17.966 4.797l-0.244 0.98c0.067 0.017 1.644 0.427 1.644 2.033h1.009c-0-1.908-1.576-2.805-2.409-3.012z"></path>
<path fill="#212121" d="M20.375 8.818h-1.009v1.009h1.009v-1.009z"></path>
</svg>
